# xmcd
#
# Track frame offsets: 
#        150
#        13328
#        26884
#        40512
#        54279
#        67926
#        81721
#        95554
#        109396
#        123151
#        136859
#        150087
#        163755
#        177458
#        189428
#        202872
#        216511
#        230147
#        244341
#        258006
#        271694
#
# Disc length: 3802 seconds
#
# Revision: 0
# Processed by: cddbd v1.5.2PL0 Copyright (c) Steve Scherf et al.
# Submitted via: ExactAudioCopy v1.1
#
DISCID=220ed815
DTITLE=Various Artist - Eurovision Song Contest Lisbon 2018 - CD 2
DYEAR=2018
DGENRE=Eurovision
TTITLE0=Ryan O'Shaughnessy - Together (Ireland)
TTITLE1=Ari Olafsson - Our Choice (Iceland)
TTITLE2=Netta - Toy (Israel)
TTITLE3=Ermal Meta and Fabrizio Moro - Non Mi Avete Fatto Niente (Italy)
TTITLE4=Ieva Zasimauskaitė - When We're Old (Lithuania)
TTITLE5=Laura Rizzotto - Funny Girl (Latvia)
TTITLE6=DoReDoS - My Lucky Day (Moldova)
TTITLE7=Eye Cue - Lost And Found (F.Y.R. Macedonia)
TTITLE8=Christabelle - Taboo (Malta)
TTITLE9=Vanja Radovanović - Inje (Montenegro)
TTITLE10=Waylon - Outlaw In 'Em (The Netherlands)
TTITLE11=Alexander Rybak - That's How You Write A Song (Norway)
TTITLE12=Gromee Feat. Lukas Meijer - Light Me Up (Poland)
TTITLE13=Cláudia Pascoal Feat. Isaura - O Jardim (Portugal)
TTITLE14=The Humans - Goodbye (Romania)
TTITLE15=Julia Samoylova - I Won't Break (Russia)
TTITLE16=Jessika Feat. Jenifer Brening - Who We Are (San Marino)
TTITLE17=Sanja Ilić and Balkanika - Nova Deca (Serbia)
TTITLE18=Lea Sirk - Hvala, Ne! (Slovenia)
TTITLE19=Benjamin Ingrosso - Dance You Off (Sweden)
TTITLE20=Mélovin - Under The Ladder (Ukraine)
EXTD=
EXTT0=
EXTT1=
EXTT2=
EXTT3=
EXTT4=
EXTT5=
EXTT6=
EXTT7=
EXTT8=
EXTT9=
EXTT10=
EXTT11=
EXTT12=
EXTT13=
EXTT14=
EXTT15=
EXTT16=
EXTT17=
EXTT18=
EXTT19=
EXTT20=
PLAYORDER=
